<svg xmlns="http://www.w3.org/2000/svg" viewBox="0 0 512 512" width="512" height="512" fill="none">
  <!-- Solid white disc: the mark is a single dark-blue colour, so without a
       backdrop it all but vanished against dark browser chrome. -->
  <circle cx="256" cy="256" r="256" fill="#FFFFFF"/>
  <!-- Mark bbox in logo.svg user units is 322.4 x 240.4 at (10.08, 9.96);
       scaled to 370px wide (~72% of the disc) and centred. -->
  <g transform="translate(71,119) scale(1.1476) translate(-10.08,-9.96)">
<g transform="translate(10.000,10.000) scale(0.291616) translate(-39,-40)">
    <g transform="translate(0,900) scale(0.1,-0.1)" fill="#4C4DD9" stroke="none">
      <path d="M1520 8580 c-9 -17 -21 -20 -80 -20 -59 0 -71 -3 -80 -20 -8 -16 -21 -20 -60 -20 -39 0 -52 -4 -60 -20 -7 -13 -21 -20 -40 -20 -19 0 -33 -7 -40 -20 -7 -12 -21 -20 -38 -20 -19 0 -37 -12 -62 -40 -21 -24 -44 -40 -58 -40 -33 0 -402 -371 -402 -405 0 -14 -8 -29 -20 -35 -13 -7 -20 -21 -20 -40 0 -19 -7 -33 -20 -40 -13 -7 -20 -21 -20 -40 0 -19 -7 -33 -20 -40 -16 -8 -20 -21 -20 -60 0 -39 -4 -52 -20 -60 -17 -9 -20 -21 -20 -80 0 -59 -3 -71 -20 -80 -32 -17 -32 -5943 0 -5960 17 -9 20 -21 20 -80 0 -59 3 -71 20 -80 16 -8 20 -21 20 -60 0 -39 4 -52 20 -60 16 -8 20 -21 20 -60 0 -39 4 -52 20 -60 12 -7 20 -21 20 -38 0 -19 12 -37 40 -62 24 -21 40 -44 40 -58 0 -32 330 -362 362 -362 14 0 37 -16 58 -40 25 -28 43 -40 62 -40 17 0 31 -8 38 -20 8 -16 21 -20 60 -20 39 0 52 -4 60 -20 7 -13 21 -20 40 -20 19 0 33 -7 40 -20 9 -18 21 -20 100 -20 79 0 91 -2 100 -20 11 -20 21 -20 1600 -20 1579 0 1589 0 1600 20 10 19 21 20 180 20 159 0 170 1 180 20 10 18 21 20 120 20 99 0 110 2 120 20 9 17 21 20 80 20 59 0 71 3 80 20 9 17 21 20 80 20 59 0 71 3 80 20 9 17 21 20 80 20 59 0 71 3 80 20 8 16 21 20 60 20 39 0 52 4 60 20 8 16 21 20 60 20 39 0 52 4 60 20 7 13 21 20 40 20 19 0 33 7 40 20 8 16 21 20 60 20 39 0 52 4 60 20 7 13 21 20 40 20 19 0 33 7 40 20 8 16 21 20 60 20 39 0 52 4 60 20 7 13 21 20 40 20 19 0 33 7 40 20 7 13 21 20 40 20 19 0 33 7 40 20 7 13 21 20 40 20 19 0 33 7 40 20 7 13 21 20 40 20 19 0 33 7 40 20 7 12 21 20 38 20 19 0 37 12 62 40 25 28 43 40 62 40 17 0 31 8 38 20 7 12 21 20 38 20 19 0 37 12 62 40 23 26 44 40 60 40 16 0 37 14 60 40 22 25 44 40 59 40 15 0 43 20 81 60 36 37 66 60 80 60 14 0 55 34 120 100 62 63 106 100 119 100 29 0 441 412 441 440 0 14 44 64 120 140 80 79 120 126 120 141 0 13 23 43 60 79 40 38 60 66 60 81 0 15 15 37 40 59 26 23 40 44 40 60 0 16 14 37 40 60 26 23 40 44 40 60 0 16 14 37 40 60 28 25 40 43 40 62 0 17 8 31 20 38 12 7 20 21 20 38 0 19 12 37 40 62 28 25 40 43 40 62 0 17 8 31 20 38 14 8 20 21 20 45 0 34 20 49 35 25 3 -5 6 -163 5 -350 l0 -340 49 -50 50 -50 181 0 181 0 49 50 50 49 0 945 c0 935 0 945 -20 956 -15 8 -20 21 -20 56 0 41 -5 50 -50 94 l-49 50 -1001 0 -1002 0 -29 -29 c-23 -24 -29 -38 -29 -75 0 -35 -5 -48 -20 -56 -18 -10 -20 -21 -20 -120 0 -99 2 -110 20 -120 12 -6 20 -21 20 -36 0 -33 51 -84 84 -84 15 0 30 -8 36 -20 10 -19 23 -20 623 -22 l612 -3 3 -72 c3 -64 1 -73 -18 -83 -16 -9 -20 -21 -20 -60 0 -39 -4 -52 -20 -60 -13 -7 -20 -21 -20 -40 0 -19 -7 -33 -20 -40 -13 -7 -20 -21 -20 -40 0 -19 -7 -33 -20 -40 -12 -6 -20 -21 -20 -36 0 -19 -17 -43 -60 -84 -37 -35 -60 -66 -60 -79 0 -30 -132 -161 -162 -161 -14 0 -37 -16 -58 -40 -23 -26 -44 -40 -60 -40 -16 0 -37 -14 -60 -40 -25 -28 -43 -40 -62 -40 -17 0 -31 -8 -38 -20 -8 -16 -21 -20 -60 -20 -39 0 -52 -4 -60 -20 -8 -16 -21 -20 -60 -20 -39 0 -52 -4 -60 -20 -10 -18 -21 -20 -140 -20 -119 0 -130 -2 -140 -20 -16 -30 -144 -30 -160 0 -10 18 -21 20 -140 20 -119 0 -130 2 -140 20 -8 16 -21 20 -60 20 -39 0 -52 4 -60 20 -8 16 -21 20 -60 20 -39 0 -52 4 -60 20 -7 12 -21 20 -38 20 -19 0 -37 12 -62 40 -23 26 -44 40 -60 40 -16 0 -37 14 -60 40 -21 24 -44 40 -58 40 -31 0 -242 211 -242 242 0 14 -16 37 -40 58 -24 21 -40 44 -40 58 0 14 -20 43 -50 74 l-50 51 -30 -29 c-18 -18 -30 -40 -30 -56 0 -17 -8 -31 -20 -38 -13 -7 -20 -21 -20 -40 0 -19 -7 -33 -20 -40 -13 -7 -20 -21 -20 -40 0 -19 -7 -33 -20 -40 -13 -7 -20 -21 -20 -40 0 -19 -7 -33 -20 -40 -13 -7 -20 -21 -20 -40 0 -19 -7 -33 -20 -40 -17 -9 -20 -21 -20 -80 0 -59 3 -71 20 -80 12 -6 20 -21 20 -36 0 -32 129 -164 161 -164 13 0 50 -30 99 -80 53 -55 86 -80 102 -80 14 0 36 -15 58 -40 23 -26 44 -40 60 -40 16 0 37 -14 60 -40 25 -28 43 -40 62 -40 17 0 31 -8 38 -20 7 -13 21 -20 40 -20 19 0 33 -7 40 -20 8 -16 21 -20 60 -20 39 0 52 -4 60 -20 8 -16 21 -20 60 -20 39 0 52 -4 60 -20 9 -17 21 -20 80 -20 59 0 71 -3 80 -20 10 -18 21 -20 120 -20 99 0 110 -2 120 -20 17 -31 343 -31 360 0 12 22 120 31 120 9 0 -21 -419 -429 -441 -429 -13 0 -44 -24 -79 -60 -37 -38 -66 -60 -80 -60 -14 0 -43 -22 -80 -60 -38 -40 -66 -60 -81 -60 -15 0 -37 -15 -59 -40 -25 -28 -43 -40 -62 -40 -17 0 -31 -8 -38 -20 -7 -12 -21 -20 -38 -20 -19 0 -37 -12 -62 -40 -25 -28 -43 -40 -62 -40 -17 0 -31 -8 -38 -20 -7 -13 -21 -20 -40 -20 -19 0 -33 -7 -40 -20 -7 -13 -21 -20 -40 -20 -19 0 -33 -7 -40 -20 -7 -13 -21 -20 -40 -20 -19 0 -33 -7 -40 -20 -7 -13 -21 -20 -40 -20 -19 0 -33 -7 -40 -20 -8 -16 -21 -20 -60 -20 -39 0 -52 -4 -60 -20 -7 -13 -21 -20 -40 -20 -19 0 -33 -7 -40 -20 -8 -16 -21 -20 -60 -20 -39 0 -52 -4 -60 -20 -8 -16 -21 -20 -60 -20 -39 0 -52 -4 -60 -20 -8 -16 -21 -20 -60 -20 -39 0 -52 -4 -60 -20 -9 -17 -21 -20 -80 -20 -59 0 -71 -3 -80 -20 -9 -18 -21 -20 -100 -20 -79 0 -91 -2 -100 -20 -9 -18 -21 -20 -100 -20 -79 0 -91 -2 -100 -20 -10 -19 -21 -20 -160 -20 -139 0 -150 -1 -160 -20 -11 -20 -21 -20 -1580 -20 -1559 0 -1569 0 -1580 20 -9 17 -21 20 -80 20 -59 0 -71 3 -80 20 -6 12 -21 20 -36 20 -19 0 -43 17 -84 60 -36 37 -66 60 -80 60 -29 0 -80 52 -80 82 0 14 -15 36 -40 58 -28 25 -40 43 -40 62 0 17 -8 31 -20 38 -13 7 -20 21 -20 40 0 19 -7 33 -20 40 -16 8 -20 21 -20 60 0 39 -4 52 -20 60 -32 17 -32 5823 0 5840 17 9 20 21 20 80 0 59 3 71 20 80 12 7 20 21 20 38 0 19 12 37 40 62 24 21 40 44 40 58 0 33 171 202 204 202 15 0 30 8 36 20 7 13 21 20 40 20 19 0 33 7 40 20 8 16 21 20 60 20 39 0 52 4 60 20 11 20 21 20 1540 20 1519 0 1529 0 1540 -20 8 -16 21 -20 58 -20 42 0 51 -4 82 -40 21 -24 44 -40 58 -40 31 0 242 -211 242 -242 0 -14 16 -37 40 -58 25 -22 40 -44 40 -59 0 -15 20 -43 60 -81 43 -41 60 -65 60 -84 0 -15 8 -30 20 -36 12 -7 20 -21 20 -38 0 -19 12 -37 40 -62 24 -21 40 -44 40 -58 0 -31 131 -162 162 -162 14 0 37 -16 58 -40 25 -28 43 -40 62 -40 17 0 31 -8 38 -20 7 -13 21 -20 40 -20 19 0 33 -7 40 -20 9 -17 21 -20 80 -20 59 0 71 -3 80 -20 11 -20 21 -20 2160 -20 2139 0 2149 0 2160 -20 8 -16 21 -20 60 -20 39 0 52 -4 60 -20 7 -13 21 -20 40 -20 19 0 33 -7 40 -20 6 -12 21 -20 36 -20 35 0 244 -209 244 -244 0 -15 8 -30 20 -36 13 -7 20 -21 20 -40 0 -19 7 -33 20 -40 16 -8 20 -21 20 -60 0 -39 4 -52 20 -60 20 -11 20 -21 20 -2360 0 -2339 0 -2349 -20 -2360 -16 -8 -20 -21 -20 -60 0 -39 -4 -52 -20 -60 -12 -7 -20 -21 -20 -38 0 -19 -12 -37 -40 -62 -24 -21 -40 -44 -40 -58 0 -31 -131 -162 -162 -162 -14 0 -37 -16 -58 -40 -25 -28 -43 -40 -62 -40 -17 0 -31 -8 -38 -20 -9 -17 -21 -20 -80 -20 -59 0 -71 -3 -80 -20 -11 -20 -21 -20 -1340 -20 -1305 0 -1329 0 -1340 -19 -6 -12 -23 -21 -43 -23 -28 -3 -32 -7 -35 -35 -2 -20 -11 -37 -23 -43 -17 -10 -19 -23 -19 -156 l0 -145 70 -69 69 -70 1345 0 c1335 0 1345 0 1356 20 9 18 21 20 100 20 79 0 91 2 100 20 8 16 21 20 60 20 39 0 52 4 60 20 7 13 21 20 40 20 19 0 33 7 40 20 7 13 21 20 40 20 19 0 33 7 40 20 6 12 21 20 36 20 19 0 47 21 104 80 50 51 86 80 100 80 28 0 80 52 80 80 0 14 29 50 80 100 59 57 80 85 80 104 0 15 8 30 20 36 13 7 20 21 20 40 0 19 7 33 20 40 13 7 20 21 20 40 0 19 7 33 20 40 16 8 20 21 20 60 0 39 4 52 20 60 18 9 20 21 20 100 0 79 2 91 20 100 32 17 32 4703 0 4720 -18 9 -20 21 -20 100 0 79 -2 91 -20 100 -16 8 -20 21 -20 60 0 39 -4 52 -20 60 -13 7 -20 21 -20 40 0 19 -7 33 -20 40 -12 7 -20 21 -20 38 0 19 -12 37 -40 62 -25 22 -40 44 -40 59 0 15 -20 43 -60 81 -37 36 -60 66 -60 79 0 29 -92 121 -121 121 -13 0 -43 23 -79 60 -41 43 -65 60 -84 60 -15 0 -30 8 -36 20 -7 13 -21 20 -40 20 -19 0 -33 7 -40 20 -7 13 -21 20 -40 20 -19 0 -33 7 -40 20 -7 13 -21 20 -40 20 -19 0 -33 7 -40 20 -9 17 -21 20 -80 20 -59 0 -71 3 -80 20 -11 20 -21 20 -2180 20 -2159 0 -2169 0 -2180 20 -6 12 -21 20 -36 20 -33 0 -204 169 -204 202 0 14 -16 37 -40 58 -28 25 -40 43 -40 62 0 17 -8 31 -20 38 -12 7 -20 21 -20 38 0 19 -12 37 -40 62 -25 22 -40 44 -40 59 0 15 -20 43 -60 81 -37 35 -60 66 -60 79 0 29 -172 201 -201 201 -13 0 -44 23 -79 60 -41 43 -65 60 -84 60 -15 0 -30 8 -36 20 -7 13 -21 20 -40 20 -19 0 -33 7 -40 20 -8 16 -21 20 -60 20 -39 0 -52 4 -60 20 -9 17 -21 20 -80 20 -59 0 -71 3 -80 20 -11 20 -21 20 -1580 20 -1559 0 -1569 0 -1580 -20z"/>
      <path d="M3280 6180 c-9 -17 -21 -20 -80 -20 -59 0 -71 -3 -80 -20 -8 -16 -21 -20 -60 -20 -39 0 -52 -4 -60 -20 -8 -16 -21 -20 -60 -20 -39 0 -52 -4 -60 -20 -7 -13 -21 -20 -40 -20 -19 0 -33 -7 -40 -20 -7 -13 -21 -20 -40 -20 -19 0 -33 -7 -40 -20 -7 -12 -21 -20 -38 -20 -19 0 -37 -12 -62 -40 -21 -24 -44 -40 -58 -40 -30 0 -482 -450 -482 -481 0 -13 -24 -44 -60 -79 -43 -41 -60 -65 -60 -84 0 -15 -8 -30 -20 -36 -13 -7 -20 -21 -20 -40 0 -19 -7 -33 -20 -40 -13 -7 -20 -21 -20 -40 0 -19 -7 -33 -20 -40 -16 -8 -20 -21 -20 -60 0 -39 -4 -52 -20 -60 -13 -7 -20 -21 -20 -40 0 -19 -7 -33 -20 -40 -18 -9 -20 -21 -20 -100 0 -79 -2 -91 -20 -100 -31 -17 -31 -743 0 -760 17 -9 20 -21 20 -80 0 -59 3 -71 20 -80 16 -8 20 -21 20 -60 0 -39 4 -52 20 -60 13 -7 20 -21 20 -40 0 -19 7 -33 20 -40 13 -7 20 -21 20 -40 0 -19 7 -33 20 -40 13 -7 20 -21 20 -40 0 -19 7 -33 20 -40 12 -7 20 -21 20 -38 0 -19 12 -37 40 -62 26 -23 40 -44 40 -60 0 -16 14 -37 40 -60 24 -21 40 -44 40 -58 0 -30 290 -322 321 -322 13 0 44 -24 79 -60 41 -43 65 -60 84 -60 15 0 30 -8 36 -20 7 -13 21 -20 40 -20 19 0 33 -7 40 -20 7 -13 21 -20 40 -20 19 0 33 -7 40 -20 7 -13 21 -20 40 -20 19 0 33 -7 40 -20 7 -13 21 -20 40 -20 19 0 33 -7 40 -20 8 -16 21 -20 60 -20 39 0 52 -4 60 -20 9 -17 21 -20 80 -20 59 0 71 -3 80 -20 10 -18 21 -20 120 -20 99 0 110 -2 120 -20 17 -31 343 -31 360 0 10 18 21 20 120 20 99 0 110 2 120 20 9 17 21 20 80 20 59 0 71 3 80 20 8 16 21 20 60 20 39 0 52 4 60 20 7 13 21 20 40 20 19 0 33 7 40 20 7 13 21 20 40 20 19 0 33 7 40 20 7 13 21 20 40 20 19 0 33 7 40 20 7 12 21 20 38 20 19 0 37 12 62 40 23 26 44 40 60 40 16 0 37 14 60 40 21 24 44 40 58 40 30 0 402 370 402 401 0 13 24 44 60 79 40 38 60 66 60 81 0 15 15 37 40 59 28 25 40 43 40 62 0 17 8 31 20 38 13 7 20 21 20 40 0 19 7 33 20 40 13 7 20 21 20 40 0 19 7 33 20 40 13 7 20 21 20 40 0 19 7 33 20 40 13 7 20 21 20 40 0 19 7 33 20 40 16 8 20 21 20 60 0 39 4 52 20 60 13 7 20 21 20 40 0 19 7 33 20 40 16 8 20 21 20 60 0 39 4 52 20 60 16 8 20 21 20 60 0 39 4 52 20 60 16 8 20 21 20 60 0 39 4 52 20 60 16 8 20 21 20 60 0 39 4 52 20 60 16 8 20 21 20 60 0 39 4 52 20 60 16 8 20 21 20 60 0 39 4 52 20 60 13 7 20 21 20 40 0 19 7 33 20 40 13 7 20 21 20 40 0 19 7 33 20 40 12 7 20 21 20 38 0 19 12 37 40 62 24 21 40 44 40 58 0 32 330 362 362 362 14 0 37 16 58 40 25 28 43 40 62 40 17 0 31 8 38 20 7 13 21 20 40 20 19 0 33 7 40 20 8 16 21 20 60 20 39 0 52 4 60 20 8 16 21 20 60 20 39 0 52 4 60 20 10 19 21 20 300 20 279 0 290 -1 300 -20 9 -17 21 -20 80 -20 59 0 71 -3 80 -20 7 -13 21 -20 40 -20 19 0 33 -7 40 -20 7 -13 21 -20 40 -20 19 0 33 -7 40 -20 7 -13 21 -20 40 -20 19 0 33 -7 40 -20 7 -12 21 -20 38 -20 19 0 37 -12 62 -40 25 -28 43 -40 62 -40 17 0 31 -8 38 -20 8 -15 21 -20 56 -20 66 0 344 274 344 340 0 50 -158 220 -204 220 -15 0 -30 8 -36 20 -7 12 -21 20 -38 20 -19 0 -37 12 -62 40 -25 28 -43 40 -62 40 -17 0 -31 8 -38 20 -7 13 -21 20 -40 20 -19 0 -33 7 -40 20 -8 16 -21 20 -60 20 -39 0 -52 4 -60 20 -8 16 -21 20 -60 20 -39 0 -52 4 -60 20 -9 17 -21 20 -80 20 -59 0 -71 3 -80 20 -10 19 -21 20 -360 20 -339 0 -350 -1 -360 -20 -9 -17 -21 -20 -80 -20 -59 0 -71 -3 -80 -20 -8 -16 -21 -20 -60 -20 -39 0 -52 -4 -60 -20 -8 -16 -21 -20 -60 -20 -39 0 -52 -4 -60 -20 -7 -13 -21 -20 -40 -20 -19 0 -33 -7 -40 -20 -7 -13 -21 -20 -40 -20 -19 0 -33 -7 -40 -20 -7 -12 -21 -20 -38 -20 -19 0 -37 -12 -62 -40 -22 -25 -44 -40 -59 -40 -15 0 -43 -20 -81 -60 -35 -36 -66 -60 -79 -60 -29 0 -241 -212 -241 -241 0 -13 -24 -44 -60 -79 -40 -38 -60 -66 -60 -81 0 -15 -15 -37 -40 -59 -26 -23 -40 -44 -40 -60 0 -16 -14 -37 -40 -60 -28 -25 -40 -43 -40 -62 0 -17 -8 -31 -20 -38 -13 -7 -20 -21 -20 -40 0 -19 -7 -33 -20 -40 -13 -7 -20 -21 -20 -40 0 -19 -7 -33 -20 -40 -16 -8 -20 -21 -20 -60 0 -39 -4 -52 -20 -60 -13 -7 -20 -21 -20 -40 0 -19 -7 -33 -20 -40 -16 -8 -20 -21 -20 -60 0 -39 -4 -52 -20 -60 -17 -9 -20 -21 -20 -80 0 -59 -3 -71 -20 -80 -16 -8 -20 -21 -20 -60 0 -39 -4 -52 -20 -60 -16 -8 -20 -21 -20 -60 0 -39 -4 -52 -20 -60 -13 -7 -20 -21 -20 -40 0 -19 -7 -33 -20 -40 -16 -8 -20 -21 -20 -60 0 -39 -4 -52 -20 -60 -13 -7 -20 -21 -20 -40 0 -19 -7 -33 -20 -40 -13 -7 -20 -21 -20 -40 0 -19 -7 -33 -20 -40 -12 -7 -20 -21 -20 -38 0 -19 -12 -37 -40 -62 -26 -23 -40 -44 -40 -60 0 -16 -14 -37 -40 -60 -25 -22 -40 -44 -40 -58 0 -16 -25 -49 -80 -102 -51 -50 -80 -86 -80 -100 0 -28 -52 -80 -80 -80 -14 0 -50 -29 -100 -80 -57 -59 -85 -80 -104 -80 -15 0 -30 -8 -36 -20 -7 -13 -21 -20 -40 -20 -19 0 -33 -7 -40 -20 -7 -13 -21 -20 -40 -20 -19 0 -33 -7 -40 -20 -7 -13 -21 -20 -40 -20 -19 0 -33 -7 -40 -20 -8 -16 -21 -20 -60 -20 -39 0 -52 -4 -60 -20 -10 -18 -21 -20 -120 -20 -99 0 -110 -2 -120 -20 -16 -31 -264 -31 -280 0 -9 18 -21 20 -100 20 -79 0 -91 2 -100 20 -9 17 -21 20 -80 20 -59 0 -71 3 -80 20 -7 13 -21 20 -40 20 -19 0 -33 7 -40 20 -7 13 -21 20 -40 20 -19 0 -33 7 -40 20 -7 12 -21 20 -38 20 -19 0 -37 12 -62 40 -21 24 -44 40 -58 40 -31 0 -322 291 -322 322 0 14 -16 37 -40 58 -28 25 -40 43 -40 62 0 17 -8 31 -20 38 -13 7 -20 21 -20 40 0 19 -7 33 -20 40 -16 8 -20 21 -20 60 0 39 -4 52 -20 60 -16 8 -20 21 -20 60 0 39 -4 52 -20 60 -19 10 -20 21 -20 300 0 279 1 290 20 300 17 9 20 21 20 80 0 59 3 71 20 80 16 8 20 21 20 60 0 39 4 52 20 60 12 7 20 21 20 38 0 19 12 37 40 62 26 23 40 44 40 60 0 16 14 37 40 60 24 21 40 44 40 58 0 31 211 242 242 242 14 0 37 16 58 40 23 26 44 40 60 40 16 0 37 14 60 40 25 28 43 40 62 40 17 0 31 8 38 20 8 16 21 20 60 20 39 0 52 4 60 20 8 16 21 20 60 20 39 0 52 4 60 20 10 19 21 20 320 20 299 0 310 -1 320 -20 8 -16 21 -20 60 -20 39 0 52 -4 60 -20 8 -16 21 -20 60 -20 39 0 52 -4 60 -20 7 -13 21 -20 40 -20 19 0 33 -7 40 -20 7 -12 21 -20 38 -20 19 0 37 -12 62 -40 23 -26 44 -40 60 -40 16 0 37 -14 60 -40 34 -38 37 -40 98 -40 l62 0 110 110 c81 81 110 116 110 134 0 15 8 30 20 36 15 8 20 21 20 56 0 54 -194 264 -244 264 -15 0 -30 8 -36 20 -7 13 -21 20 -40 20 -19 0 -33 7 -40 20 -7 13 -21 20 -40 20 -19 0 -33 7 -40 20 -7 13 -21 20 -40 20 -19 0 -33 7 -40 20 -8 16 -21 20 -60 20 -39 0 -52 4 -60 20 -7 13 -21 20 -40 20 -19 0 -33 7 -40 20 -9 18 -21 20 -100 20 -79 0 -91 2 -100 20 -10 19 -21 20 -360 20 -339 0 -350 -1 -360 -20z"/>
    </g>
  </g>
  </g>
</svg>
